<?xml version="1.0" encoding="UTF-8"?>
<svg version="1.1" xmlns="http://www.w3.org/2000/svg" width="512" height="512">
<path d="M0 0 C4.37376567 2.6427341 7.90550774 5.65294609 11.51464844 9.25585938 C12.02925125 9.76695755 12.54385406 10.27805573 13.0740509 10.80464172 C14.75752575 12.47938177 16.43365835 14.16124998 18.109375 15.84375 C19.28398953 17.01701592 20.4589007 18.18998493 21.63409424 19.3626709 C24.08826529 21.81390223 26.53880464 24.26869214 28.98681641 26.72607422 C32.12286822 29.87354506 35.26784776 33.01191777 38.41558456 36.14769745 C40.8401297 38.56501439 43.25988977 40.98707598 45.67823029 43.41059875 C46.83617669 44.56987769 47.99560613 45.72767729 49.15654755 46.88395691 C50.77689984 48.49922551 52.39069529 50.12077469 54.00292969 51.74414062 C54.92193054 52.66473267 55.8409314 53.58532471 56.78778076 54.53381348 C60.81041713 59.01825671 61.54850604 62.5334915 61.4609375 68.453125 C60.6951155 72.68461603 58.21271539 75.27834733 55 78 C52.59933502 79.20033249 50.9290818 79.23537492 48.25 79.3125 C47.40953125 79.34988281 46.5690625 79.38726562 45.703125 79.42578125 C39.79661658 78.49542082 35.57002444 73.82176558 31.48535156 69.74414062 C30.97074875 69.23304245 30.45614594 68.72194427 29.9259491 68.19535828 C28.24247425 66.52061823 26.56634165 64.83875002 24.890625 63.15625 C23.71601047 61.98298408 22.5410993 60.81001507 21.36590576 59.6373291 C18.91173471 57.18609777 16.46119536 54.73130786 14.01318359 52.27392578 C10.87713178 49.12645494 7.73215224 45.98808223 4.58441544 42.85230255 C2.1598703 40.43498561 -0.25988977 38.01292402 -2.67823029 35.58940125 C-3.83617669 34.43012231 -4.99560613 33.27232271 -6.15654755 32.11604309 C-7.77689984 30.50077449 -9.39069529 28.87922531 -11.00292969 27.25585938 C-11.92193054 26.33526733 -12.8409314 25.41467529 -13.78778076 24.46618652 C-17.92804099 19.85061597 -18.39245329 16.4605147 -18.25 10.40625 C-17.80144283 6.0888872 -16.11461492 3.97951008 -12.9375 1.1875 C-8.68013879 -0.53356092 -4.51801029 -0.86283806 0 0 Z " fill="#9371EB" transform="translate(380,362)"/>
<path d="M0 0 C3.43087554 2.01162847 6.20989367 4.41978733 8 8 C8.23828125 10.171875 8.23828125 10.171875 8.3125 12.75 C8.36857422 14.01070312 8.36857422 14.01070312 8.42578125 15.296875 C7.49542082 21.20338342 2.82176558 25.42997556 -1.25585938 29.51464844 C-2.02250664 30.28655266 -2.02250664 30.28655266 -2.80464172 31.0740509 C-4.47938177 32.75752575 -6.16124998 34.43365835 -7.84375 36.109375 C-9.01701592 37.28398953 -10.18998493 38.4589007 -11.3626709 39.63409424 C-13.81390223 42.08826529 -16.26869214 44.53880464 -18.72607422 46.98681641 C-21.87354506 50.12286822 -25.01191777 53.26784776 -28.14769745 56.41558456 C-30.56501439 58.8401297 -32.98707598 61.25988977 -35.41059875 63.67823029 C-36.56987769 64.83617669 -37.72767729 65.99560613 -38.88395691 67.15654755 C-40.49922551 68.77689984 -42.12077469 70.39069529 -43.74414062 72.00292969 C-44.66473267 72.92193054 -45.58532471 73.8409314 -46.53381348 74.78778076 C-51.14938403 78.92804099 -54.5394853 79.39245329 -60.59375 79.25 C-64.9111128 78.80144283 -67.02048992 77.11461492 -69.8125 73.9375 C-71.53356092 69.68013879 -71.86283806 65.51801029 -71 61 C-68.3572659 56.62623433 -65.34705391 53.09449226 -61.74414062 49.48535156 C-61.23304245 48.97074875 -60.72194427 48.45614594 -60.19535828 47.9259491 C-58.52061823 46.24247425 -56.83875002 44.56634165 -55.15625 42.890625 C-53.98298408 41.71601047 -52.81001507 40.5410993 -51.6373291 39.36590576 C-49.18609777 36.91173471 -46.73130786 34.46119536 -44.27392578 32.01318359 C-41.12645494 28.87713178 -37.98808223 25.73215224 -34.85230255 22.58441544 C-32.43498561 20.1598703 -30.01292402 17.74011023 -27.58940125 15.32176971 C-26.43012231 14.16382331 -25.27232271 13.00439387 -24.11604309 11.84345245 C-22.50077449 10.22310016 -20.87922531 8.60930471 -19.25585938 6.99707031 C-18.33526733 6.07806946 -17.41467529 5.1590686 -16.46618652 4.21221924 C-11.45286155 -0.28483476 -6.60435321 -1.19526638 0 0 Z " fill="#89A3FD" transform="translate(433,71)"/>
<path d="M0 0 C3.15645345 2.77385304 4.79912383 4.8917811 5.3828125 9.1484375 C5.70987895 16.40931261 3.5606827 20.05230682 -1.35899353 25.48796082 C-2.25880447 26.38936295 -3.15861542 27.29076508 -4.08569336 28.21948242 C-4.58543167 28.72272537 -5.08516998 29.22596832 -5.60005188 29.74446106 C-7.23752109 31.39066411 -8.88211528 33.02952314 -10.52734375 34.66796875 C-11.67579369 35.81776752 -12.82394672 36.96786291 -13.97181702 38.11824036 C-16.37177399 40.52113711 -18.77528853 42.92040162 -21.18139648 45.31713867 C-24.25926112 48.38359664 -27.32804183 51.45896402 -30.39421749 54.53710461 C-32.7609576 56.91108329 -35.13245485 59.28026367 -37.50540352 61.64803505 C-38.63873504 62.78003628 -39.77059345 63.9135144 -40.90092278 65.04851341 C-42.4824527 66.63514281 -44.07028834 68.21518639 -45.65991211 69.79370117 C-46.56051865 70.69271652 -47.46112518 71.59173187 -48.38902283 72.51799011 C-53.29220133 76.93254469 -56.90149561 78.47438277 -63.42578125 78.30859375 C-67.61892789 77.48039838 -70.22862671 75.01013024 -72.9375 71.8125 C-74.1127171 69.4620658 -74.24102834 67.81009677 -74.375 65.1875 C-74.46587891 63.96160156 -74.46587891 63.96160156 -74.55859375 62.7109375 C-72.61120342 53.62311594 -62.7258341 46.3081425 -56.3359375 39.9453125 C-55.21037113 38.81839635 -54.08510157 37.69118367 -52.96011353 36.56369019 C-50.61498714 34.21563209 -48.26632421 31.87118722 -45.91503906 29.52929688 C-42.90437322 26.53007726 -39.90284739 23.52189529 -36.90387535 20.51098824 C-34.58778603 18.18767234 -32.26695517 15.86914016 -29.94466019 13.55202866 C-28.8356213 12.44432132 -27.72805896 11.33513357 -26.62202072 10.22443008 C-25.07881348 8.67613874 -23.52933201 7.13441068 -21.97802734 5.59423828 C-20.65948257 4.27808029 -20.65948257 4.27808029 -19.31430054 2.93533325 C-13.72719679 -2.05477401 -6.95253507 -2.81059928 0 0 Z " fill="#8AA3FD" transform="translate(144.9375,363.1875)"/>
<path d="M0 0 C0.81726563 -0.06058594 1.63453125 -0.12117188 2.4765625 -0.18359375 C11.54452179 1.75954038 18.66648189 11.43582344 24.98828125 17.78515625 C26.09038166 18.88590662 27.19277858 19.98636018 28.29545593 21.08653259 C30.59223966 23.38038474 32.88541003 25.67777187 35.17602539 27.9777832 C38.10565121 30.91884291 41.04422101 33.85077652 43.98553181 36.78014469 C46.25828147 39.04565698 48.52623362 41.31592379 50.79277611 43.58764458 C51.87453833 44.670736 52.95777448 45.75235744 54.04253578 46.83244514 C55.55710468 48.34191339 57.06507984 49.85768211 58.5715332 51.37524414 C59.85771294 52.66381065 59.85771294 52.66381065 61.1698761 53.97840881 C65.53315677 58.84421478 67.03524274 62.46603577 66.87109375 68.92578125 C66.04289838 73.11892789 63.57263024 75.72862671 60.375 78.4375 C58.0245658 79.6127171 56.37259677 79.74102834 53.75 79.875 C52.93273437 79.93558594 52.11546875 79.99617188 51.2734375 80.05859375 C42.20547821 78.11545962 35.08351811 68.43917656 28.76171875 62.08984375 C27.65961834 60.98909338 26.55722142 59.88863982 25.45454407 58.78846741 C23.15776034 56.49461526 20.86458997 54.19722813 18.57397461 51.8972168 C15.64434879 48.95615709 12.70577899 46.02422348 9.76446819 43.09485531 C7.49171853 40.82934302 5.22376638 38.55907621 2.95722389 36.28735542 C1.87546167 35.204264 0.79222552 34.12264256 -0.29253578 33.04255486 C-1.80710468 31.53308661 -3.31507984 30.01731789 -4.8215332 28.49975586 C-5.67898636 27.64071152 -6.53643951 26.78166718 -7.4198761 25.89659119 C-11.78315677 21.03078522 -13.28524274 17.40896423 -13.12109375 10.94921875 C-12.29289838 6.75607211 -9.82263024 4.14637329 -6.625 1.4375 C-4.2745658 0.2622829 -2.62259677 0.13397166 0 0 Z " fill="#4CC0FE" transform="translate(83.625,70.5625)"/>
<path d="M0 0 C6.58127299 4.04354056 9.05664696 9.53633348 11.7421875 16.53125 C12.1548587 17.5581897 12.56752991 18.58512939 12.9927063 19.64318848 C14.30543147 22.9217313 15.59072447 26.21022303 16.875 29.5 C17.72863461 31.64786527 18.58408905 33.79500822 19.44140625 35.94140625 C20.71785458 39.13895165 21.98986716 42.33783144 23.246521 45.54321289 C25.30080105 50.78068811 27.40302817 55.98505066 29.63769531 61.1484375 C30.26709518 62.62020447 30.26709518 62.62020447 30.90921021 64.1217041 C31.69625683 65.95298367 32.49716943 67.77839863 33.31515503 69.59606934 C35.82172252 75.46786904 36.75809458 80.61529165 36 87 C34.71866686 90.16961356 33.4799767 91.57820229 30.9375 93.8125 C26.58332925 95.57269669 22.63009212 95.64657787 18 95 C10.03283469 91.45903764 7.7609929 82.70008628 4.71484375 75.07421875 C4.41700485 74.33683975 4.11916595 73.59946075 3.81230164 72.83973694 C2.85067856 70.4569937 1.89376595 68.07239776 0.9375 65.6875 C-0.39868059 62.36285474 -1.73625359 59.03877118 -3.07421875 55.71484375 C-3.40633362 54.88880646 -3.73844849 54.06276917 -4.08062744 53.21170044 C-6.14636765 48.08396887 -8.25199805 42.97497796 -10.39453125 37.87890625 C-10.90169678 36.66436768 -11.4088623 35.4498291 -11.93139648 34.19848633 C-12.86571443 31.96658359 -13.80868386 29.73827456 -14.76196289 27.5144043 C-17.59507324 20.7093467 -20.35825317 13.99930101 -17.875 6.6875 C-13.28372651 0.10667466 -7.91083798 -1.97240733 0 0 Z " fill="#9776EE" transform="translate(325,399)"/>
<path d="M0 0 C1.02269485 0.42116089 2.04538971 0.84232178 3.09907532 1.27624512 C6.35839419 2.62130824 9.61086083 3.98210289 12.86328125 5.34375 C14.99630211 6.22763156 17.12976268 7.11045276 19.26367188 7.9921875 C22.43924405 9.30468637 25.6133777 10.62013666 28.78317261 11.9465332 C34.00858299 14.13235496 39.24416517 16.27556503 44.52197266 18.33203125 C45.53008499 18.72934448 46.53819733 19.12665771 47.57685852 19.53601074 C49.47641591 20.28229333 51.38050865 21.01717298 53.28971863 21.73840332 C59.02328176 24.0058085 62.33401266 26.16021282 65.17578125 31.84375 C65.59427428 36.3908377 65.71196492 40.51740093 63.98828125 44.78125 C60.77098144 48.4423153 57.99039233 50.02698029 53.125 50.3671875 C44.57386583 50.24442178 36.76219467 45.98780186 29.05078125 42.65625 C26.45113427 41.55309562 23.84938532 40.45499823 21.24760437 39.35688782 C19.48534973 38.6123029 17.7240489 37.86545658 15.96369934 37.11637878 C10.24865048 34.69032976 4.50120251 32.37286493 -1.2890625 30.1328125 C-2.75839424 29.55907717 -4.22763484 28.98510839 -5.69677734 28.41088867 C-7.76803471 27.60182147 -9.84047532 26.7986504 -11.92169189 26.01553345 C-19.64315418 23.10414873 -25.19657416 20.84708379 -29.82421875 13.84375 C-31.42473408 9.04220402 -30.76373891 5.48173299 -28.82421875 0.84375 C-20.23833892 -8.69884215 -10.22999638 -4.32242596 0 0 Z " fill="#9776EE" transform="translate(428.82421875,311.15625)"/>
<path d="M0 0 C3.16961356 1.28133314 4.57820229 2.5200233 6.8125 5.0625 C9.54922543 11.83229447 8.22911868 18.57953873 5.53659058 25.15162659 C5.17775787 25.97686325 4.81892517 26.80209991 4.44921875 27.65234375 C3.89429245 28.98790565 3.89429245 28.98790565 3.32815552 30.35044861 C2.13141534 33.2201948 0.9103263 36.07878417 -0.3125 38.9375 C-1.14453113 40.91292373 -1.97500859 42.88900254 -2.80395508 44.86572266 C-4.04269709 47.81847913 -5.28287835 50.77053705 -6.53038025 53.71960449 C-8.90612338 59.34312218 -11.20527533 64.98650262 -13.3984375 70.68359375 C-13.884884 71.93437509 -14.3714507 73.18510969 -14.8581543 74.43579102 C-15.71530724 76.65336924 -16.5589785 78.87622878 -17.38598633 81.10522461 C-19.76072076 87.15906861 -22.21299749 91.69221214 -28 95 C-32.3585501 96.15321204 -36.86485151 96.04215581 -40.96875 94.0390625 C-44.19338079 91.55736135 -46.19063197 88.95691036 -47 85 C-46.93132301 77.79572465 -44.61484795 71.73420984 -41.84375 65.17578125 C-41.42258911 64.1530864 -41.00142822 63.13039154 -40.56750488 62.07670593 C-39.22244176 58.81738706 -37.86164711 55.56492042 -36.5 52.3125 C-35.61611844 50.17947914 -34.73329724 48.04601857 -33.8515625 45.91210938 C-32.53906363 42.7365372 -31.22361334 39.56240355 -29.8972168 36.39260864 C-27.71139504 31.16719826 -25.56818497 25.93161608 -23.51171875 20.65380859 C-23.11440552 19.64569626 -22.71709229 18.63758392 -22.30773926 17.59892273 C-21.56145667 15.69936534 -20.82657702 13.7952726 -20.10534668 11.88606262 C-16.11765348 1.80242565 -10.55190675 -0.91538623 0 0 Z " fill="#6CB1FD" transform="translate(353,18)"/>
<path d="M0 0 C3.15645345 2.77385304 4.79912383 4.8917811 5.3828125 9.1484375 C5.57384286 13.38931144 5.30225183 16.27305838 3.5625 20.1875 C-1.29227199 25.28501059 -8.40999372 27.51989362 -14.86328125 30.09765625 C-15.60066025 30.39549515 -16.33803925 30.69333405 -17.09776306 31.00019836 C-19.4805063 31.96182144 -21.86510224 32.91873405 -24.25 33.875 C-27.57464526 35.21118059 -30.89872882 36.54875359 -34.22265625 37.88671875 C-35.04869354 38.21883362 -35.87473083 38.55094849 -36.72579956 38.89312744 C-41.85353113 40.95886765 -46.96252204 43.06449805 -52.05859375 45.20703125 C-53.27313232 45.71419678 -54.4876709 46.2213623 -55.73901367 46.74389648 C-57.97091641 47.67821443 -60.19922544 48.62118386 -62.4230957 49.57446289 C-69.2281533 52.40757324 -75.93819899 55.17075317 -83.25 52.6875 C-87.16746077 49.95438783 -89.4090773 47.54874602 -90.8125 42.9375 C-91.00997752 38.00056202 -90.12764598 34.35204376 -87.08300781 30.41357422 C-82.96012278 26.48623301 -77.44521146 24.80733833 -72.234375 22.7578125 C-71.08318176 22.29317596 -69.93198853 21.82853943 -68.74591064 21.349823 C-65.68508062 20.11697504 -62.62014716 18.89518632 -59.55273438 17.67883301 C-56.4925875 16.46258484 -53.43797098 15.23262021 -50.3828125 14.00390625 C-45.6915739 12.11794699 -40.99681459 10.24116128 -36.29980469 8.36962891 C-32.38955874 6.8067668 -28.493188 5.21861761 -24.61425781 3.57958984 C-23.83221985 3.25006317 -23.05018188 2.9205365 -22.2444458 2.58102417 C-20.85156348 1.9906788 -19.46124578 1.39421997 -18.07440186 0.78982544 C-11.74311057 -1.8922048 -6.3990491 -2.58684964 0 0 Z " fill="#A695FC" transform="translate(488.9375,152.1875)"/>
<path d="M0 0 C3.42261048 1.67055988 5.38754432 4.04137373 7.4375 7.25 C9.08903518 15.32417199 5.89496603 22.59865417 2.80859375 29.89453125 C2.38506119 30.92196945 1.96152863 31.94940765 1.52516174 33.00798035 C0.1733985 36.28074937 -1.19402674 39.54668777 -2.5625 42.8125 C-3.89759763 46.02910306 -5.22944505 49.24703886 -6.56112671 52.46505737 C-7.43695817 54.5782206 -8.31538179 56.6903114 -9.19644165 58.80130005 C-11.28054001 63.80116956 -13.33165246 68.80883153 -15.29638672 73.85693359 C-15.65361313 74.77133713 -16.01083954 75.68574066 -16.37889099 76.62785339 C-17.03872999 78.3259553 -17.69136166 80.02688407 -18.33509827 81.7311554 C-20.28643925 86.74747185 -22.30318409 91.20393146 -26.94140625 94.29296875 C-31.8205887 95.96874109 -37.19749447 95.72867245 -41.9375 93.8125 C-45.5985653 90.59520019 -47.18323029 87.81461108 -47.5234375 82.94921875 C-47.40067178 74.39808458 -43.14405186 66.58641342 -39.8125 58.875 C-38.70934562 56.27535302 -37.61124823 53.67360407 -36.51313782 51.07182312 C-35.7685529 49.30956848 -35.02170658 47.54826765 -34.27262878 45.78791809 C-31.84657976 40.07286923 -29.52911493 34.32542126 -27.2890625 28.53515625 C-26.71532717 27.06582451 -26.14135839 25.59658391 -25.56713867 24.12744141 C-24.75807147 22.05618404 -23.9549004 19.98374343 -23.17178345 17.90252686 C-18.69045509 6.01732059 -14.08530983 -2.84251734 0 0 Z " fill="#A694FC" transform="translate(198,399)"/>
<path d="M0 0 C2.99305298 1.82312092 5.40420798 3.80841596 7 7 C7.30859375 9.35546875 7.30859375 9.35546875 7.4375 12.1875 C7.49808594 13.10917969 7.55867188 14.03085937 7.62109375 14.98046875 C6.69721223 19.47204367 4.42882429 22.01207325 1 25 C-2.78629656 27.1389593 -6.74838213 28.68674707 -10.80078125 30.25 C-12.52544868 30.94270996 -12.52544868 30.94270996 -14.28495789 31.64941406 C-17.95370708 33.1182234 -21.63252479 34.55957945 -25.3125 36 C-27.74356778 36.96691853 -30.17391444 37.93565221 -32.60351562 38.90625 C-37.28258814 40.7737831 -41.96636613 42.62868457 -46.65380859 44.47509766 C-50.559653 46.01906543 -54.44911621 47.59175923 -58.31884766 49.22412109 C-59.49183662 49.71827515 -59.49183662 49.71827515 -60.68852234 50.22241211 C-62.08189846 50.81359628 -63.47267763 51.41096496 -64.85993958 52.01635742 C-69.94031696 54.17268138 -74.5563793 55.18908749 -80 54 C-83.16961356 52.71866686 -84.57820229 51.4799767 -86.8125 48.9375 C-88.57269669 44.58332925 -88.64657787 40.63009212 -88 36 C-84.47230576 28.06268795 -75.77659639 25.79181083 -68.1796875 22.75 C-67.45051117 22.45480469 -66.72133484 22.15960938 -65.97006226 21.85546875 C-63.60656611 20.89981147 -61.24107706 19.94924801 -58.875 19 C-56.39289547 18.00345816 -53.91081097 17.00686679 -51.42883301 16.01000977 C-49.74957137 15.33556625 -48.07012729 14.6615768 -46.39050293 13.98803711 C-41.68420072 12.09634885 -36.99398586 10.17187692 -32.32022095 8.20117188 C-29.60486443 7.05715258 -26.88364019 5.92752255 -24.16168213 4.79931641 C-22.29587127 4.01917979 -20.43856027 3.21881209 -18.58154297 2.41796875 C-12.25204517 -0.19035559 -6.74095388 -2.31151555 0 0 Z " fill="#6DB0FE" transform="translate(106,307)"/>
<path d="M0 0 C1.67848961 0.72255083 3.35678996 1.44554146 5.03491211 2.16894531 C6.76785446 2.90139849 8.50150532 3.6321775 10.23583984 4.36132812 C13.73016016 5.83240279 17.22063956 7.31209437 20.70874023 8.79785156 C25.29512146 10.74593225 29.90127207 12.64103882 34.51928711 14.51269531 C35.85353529 15.05529018 37.18776441 15.59793193 38.52197266 16.140625 C40.96721039 17.13478624 43.41417812 18.12425846 45.86230469 19.11132812 C60.50796949 25.11991707 60.50796949 25.11991707 63.72241211 30.91894531 C64.50848694 35.25545812 64.71004423 39.85833014 62.77319336 43.89941406 C60.26508019 47.10378578 57.68332682 49.10875821 53.72241211 49.91894531 C46.94602165 49.7964837 41.27093642 47.86826169 35.09741211 45.23535156 C34.2001088 44.86394547 33.30280548 44.49253937 32.37831116 44.10987854 C29.48840463 42.91113773 26.60544106 41.69662186 23.72241211 40.48144531 C20.74747516 39.24102519 17.7710971 38.00410669 14.79469299 36.76721191 C12.83383641 35.95184174 10.87357534 35.13503789 8.91392517 34.31677246 C3.44533116 32.0357837 -2.03573257 29.79727303 -7.55493164 27.64160156 C-8.70799805 27.19034912 -9.86106445 26.73909668 -11.04907227 26.27416992 C-13.09085515 25.48079053 -15.13497469 24.69338608 -17.18188477 23.91333008 C-22.52491355 21.82614874 -27.27031293 19.93288989 -30.57055664 14.97753906 C-32.24632898 10.09835661 -32.00626034 4.72145084 -30.09008789 -0.01855469 C-21.49717293 -9.7966993 -10.10081437 -4.26904809 0 0 Z " fill="#44C3FE" transform="translate(49.277587890625,156.0810546875)"/>
<path d="M0 0 C3.86191384 3.2332302 5.52972138 4.75736598 6.07518005 9.91757202 C6.09601618 11.41545341 6.10029907 12.91362033 6.09155273 14.41162109 C6.09841599 15.23162094 6.10527924 16.05162079 6.11235046 16.89646912 C6.13064292 19.60563504 6.12677702 22.3142231 6.12109375 25.0234375 C6.12565491 26.90906971 6.13096029 28.79470025 6.13697815 30.68032837 C6.14591445 34.6329829 6.14348084 38.58543545 6.13354492 42.53808594 C6.12206416 47.59785049 6.14225035 52.65691623 6.17146206 57.71658897 C6.1898306 61.61144424 6.18953013 65.50613233 6.18382454 69.40102005 C6.18367135 71.26609908 6.18971345 73.13118947 6.20211601 74.99622726 C6.21703383 77.60779033 6.2063431 80.21806639 6.18920898 82.82958984 C6.19887695 83.59654678 6.20854492 84.36350372 6.21850586 85.15370178 C6.14765827 90.32397996 4.94559868 93.2624592 1.6875 97.25 C-2.51819084 100.17202617 -7.39131838 99.88649352 -12.3125 99.25 C-16.40155277 97.20547361 -18.75024961 95.53985544 -20.3125 91.25 C-20.51834181 88.49630013 -20.61652214 85.84256103 -20.61889648 83.08837891 C-20.62722 82.26837906 -20.63554352 81.44837921 -20.64411926 80.60353088 C-20.66820213 77.89449303 -20.67698907 75.18569602 -20.68359375 72.4765625 C-20.69256109 70.59093148 -20.70168295 68.70530119 -20.71095276 66.81967163 C-20.72744043 62.86706819 -20.73514252 58.91454943 -20.73803711 54.96191406 C-20.74342197 49.90207195 -20.78110718 44.84302778 -20.82678127 39.78341103 C-20.85655215 35.88857123 -20.86376067 31.99392363 -20.86476326 28.09897995 C-20.86896518 26.23387368 -20.88139836 24.36876683 -20.90228081 22.50377274 C-20.92919752 19.89205807 -20.92436975 17.28219362 -20.91186523 14.67041016 C-20.92669952 13.90345322 -20.94153381 13.13649628 -20.95681763 12.34629822 C-20.87750563 6.51651909 -19.2876586 4.20022099 -15.3125 0.25 C-10.62368783 -3.30702992 -4.88178449 -2.57905596 0 0 Z " fill="#9F82F4" transform="translate(263.3125,412.75)"/>
<path d="M0 0 C1.22999977 -0.01029488 1.22999977 -0.01029488 2.48484802 -0.02079773 C5.19401394 -0.03909018 7.902602 -0.03522428 10.61181641 -0.02954102 C12.49744861 -0.03410218 14.38307915 -0.03940756 16.26870728 -0.04542542 C20.2213618 -0.05436172 24.17381436 -0.05192811 28.12646484 -0.04199219 C33.1862294 -0.03051143 38.24529514 -0.05069762 43.30496788 -0.07990932 C47.19982315 -0.09827787 51.09451124 -0.09797739 54.98939896 -0.0922718 C56.85447799 -0.09211862 58.71956837 -0.09816072 60.58460617 -0.11056328 C63.19616924 -0.1254811 65.80644529 -0.11479037 68.41796875 -0.09765625 C69.18492569 -0.10732422 69.95188263 -0.11699219 70.74208069 -0.12695312 C75.91235887 -0.05610553 78.85083811 1.14595405 82.83837891 4.40405273 C85.76040507 8.60974358 85.47487243 13.48287111 84.83837891 18.40405273 C82.79385252 22.49310551 81.12823434 24.84180234 76.83837891 26.40405273 C74.08467904 26.60989454 71.43093994 26.70807488 68.67675781 26.71044922 C67.44675804 26.72293449 67.44675804 26.72293449 66.19190979 26.735672 C63.48287194 26.75975487 60.77407493 26.7685418 58.06494141 26.77514648 C56.17931039 26.78411382 54.29368009 26.79323569 52.40805054 26.80250549 C48.4554471 26.81899317 44.50292834 26.82669526 40.55029297 26.82958984 C35.49045086 26.83497471 30.43140669 26.87265991 25.37178993 26.91833401 C21.47695014 26.94810489 17.58230254 26.9553134 13.68735886 26.95631599 C11.82225259 26.96051791 9.95714573 26.97295109 8.09215164 26.99383354 C5.48043698 27.02075025 2.87057252 27.01592249 0.25878906 27.00341797 C-0.50816788 27.01825226 -1.27512482 27.03308655 -2.06532288 27.04837036 C-7.89510201 26.96905837 -10.21140011 25.37921133 -14.16162109 21.40405273 C-16.46746191 18.3645353 -16.58044033 15.20983335 -16.48193359 11.43139648 C-15.83397216 7.33027474 -13.36995423 4.62142083 -10.53109741 1.76133728 C-7.1146511 -0.19567311 -3.83166064 -0.02237181 0 0 Z " fill="#A083F4" transform="translate(427.16162109375,242.595947265625)"/>
<path d="M0 0 C0.81999985 -0.00832352 1.63999969 -0.01664703 2.48484802 -0.02522278 C5.19388587 -0.04930565 7.90268288 -0.05809258 10.61181641 -0.06469727 C12.49744743 -0.0736646 14.38307772 -0.08278647 16.26870728 -0.09205627 C20.22131072 -0.10854395 24.17382947 -0.11624604 28.12646484 -0.11914062 C33.18630695 -0.12452549 38.24535112 -0.1622107 43.30496788 -0.20788479 C47.19980767 -0.23765567 51.09445527 -0.24486418 54.98939896 -0.24586678 C56.85450522 -0.25006869 58.71961208 -0.26250187 60.58460617 -0.28338432 C63.19632083 -0.31030103 65.80618529 -0.30547327 68.41796875 -0.29296875 C69.18492569 -0.30780304 69.95188263 -0.32263733 70.74208069 -0.33792114 C76.57185982 -0.25860915 78.88815792 1.33123789 82.83837891 5.30639648 C85.14421972 8.34591392 85.25719814 11.50061587 85.15869141 15.27905273 C84.51072998 19.38017447 82.04671204 22.08902839 79.20785522 24.94911194 C75.79140891 26.90612233 72.50841845 26.73282103 68.67675781 26.71044922 C67.44675804 26.72074409 67.44675804 26.72074409 66.19190979 26.73124695 C63.48274387 26.7495394 60.77415581 26.7456735 58.06494141 26.73999023 C56.1793092 26.7445514 54.29367866 26.74985678 52.40805054 26.75587463 C48.45539601 26.76481094 44.50294345 26.76237733 40.55029297 26.75244141 C35.49052842 26.74096064 30.43146267 26.76114683 25.37178993 26.79035854 C21.47693467 26.80872709 17.58224658 26.80842661 13.68735886 26.80272102 C11.82227982 26.80256784 9.95718944 26.80860994 8.09215164 26.8210125 C5.48058858 26.83593032 2.87031252 26.82523958 0.25878906 26.80810547 C-0.89164635 26.82260742 -0.89164635 26.82260742 -2.06532288 26.83740234 C-7.23560105 26.76655475 -10.1740803 25.56449516 -14.16162109 22.30639648 C-17.08364726 18.10070564 -16.79811462 13.22757811 -16.16162109 8.30639648 C-12.32311738 0.62938905 -8.08308567 0.00696831 0 0 Z " fill="#55BDFE" transform="translate(16.16162109375,242.693603515625)"/>
<path d="M0 0 C3.60449347 3.24404412 4.40826821 5.02283522 4.77415466 9.91757202 C4.79513946 11.41547995 4.80510503 12.91356674 4.80639648 14.41162109 C4.81472 15.23162094 4.82304352 16.05162079 4.83161926 16.89646912 C4.85570213 19.60550697 4.86448907 22.31430398 4.87109375 25.0234375 C4.88006109 26.90906852 4.88918295 28.79469881 4.89845276 30.68032837 C4.91494043 34.63293181 4.92264252 38.58545057 4.92553711 42.53808594 C4.93092197 47.59792805 4.96860718 52.65697222 5.01428127 57.71658897 C5.04405215 61.61142877 5.05126067 65.50607637 5.05226326 69.40102005 C5.05646518 71.26612632 5.06889836 73.13123317 5.08978081 74.99622726 C5.11669752 77.60794193 5.11186975 80.21780638 5.09936523 82.82958984 C5.11419952 83.59654678 5.12903381 84.36350372 5.14431763 85.15370178 C5.06500563 90.98348091 3.4751586 93.29977901 -0.5 97.25 C-3.53951744 99.55584081 -6.69421939 99.66881923 -10.47265625 99.5703125 C-14.57377799 98.92235107 -17.2826319 96.45833314 -20.14271545 93.61947632 C-22.09972585 90.20303001 -21.92642455 86.92003955 -21.90405273 83.08837891 C-21.91091599 82.26837906 -21.91777924 81.44837921 -21.92485046 80.60353088 C-21.94314292 77.89436496 -21.93927702 75.1857769 -21.93359375 72.4765625 C-21.93815491 70.59093029 -21.94346029 68.70529975 -21.94947815 66.81967163 C-21.95841445 62.8670171 -21.95598084 58.91456455 -21.94604492 54.96191406 C-21.93456416 49.90214951 -21.95475035 44.84308377 -21.98396206 39.78341103 C-22.0023306 35.88855576 -22.00203013 31.99386767 -21.99632454 28.09897995 C-21.99617135 26.23390092 -22.00221345 24.36881053 -22.01461601 22.50377274 C-22.02953383 19.89220967 -22.0188431 17.28193361 -22.00170898 14.67041016 C-22.01137695 13.90345322 -22.02104492 13.13649628 -22.03100586 12.34629822 C-21.96015827 7.17602004 -20.75809868 4.2375408 -17.5 0.25 C-12.28105286 -3.37601548 -5.43137532 -2.71568766 0 0 Z " fill="#54BDFE" transform="translate(264.5,1.75)"/>
<path d="M0 0 C8.49173653 3.70021451 15.62041234 13.45913063 22 20 C20.5735422 23.2586636 18.83295838 25.4024854 16.3046875 27.890625 C15.58925781 28.59960938 14.87382813 29.30859375 14.13671875 30.0390625 C13.39035156 30.76867187 12.64398438 31.49828125 11.875 32.25 C10.74384766 33.36761719 10.74384766 33.36761719 9.58984375 34.5078125 C7.73099228 36.3431342 5.86762995 38.1736191 4 40 C0.93251997 38.62997973 -1.19106333 37.06545451 -3.56640625 34.69921875 C-4.21673828 34.05146484 -4.86707031 33.40371094 -5.53710938 32.73632812 C-6.20548828 32.06021484 -6.87386719 31.38410156 -7.5625 30.6875 C-8.57086914 29.69073242 -8.57086914 29.69073242 -9.59960938 28.67382812 C-18.40167412 19.83679986 -18.40167412 19.83679986 -18.5625 13.125 C-18.43734355 8.19972545 -16.88838917 5.7477425 -13.5078125 2.27734375 C-9.57709518 -1.05256444 -4.88594116 -0.70316957 0 0 Z " fill="#32C7FB" transform="translate(89,71)"/>
<path d="M0 0 C5.06623768 4.23816537 9.80038069 8.67408963 14.4375 13.375 C15.07365234 14.01566406 15.70980469 14.65632813 16.36523438 15.31640625 C17.91250332 16.87530879 19.45736492 18.43651416 21 20 C18.61487682 25.00875867 14.99657765 28.21376855 11 32 C10.28585938 32.69609375 9.57171875 33.3921875 8.8359375 34.109375 C8.14757812 34.75390625 7.45921875 35.3984375 6.75 36.0625 C6.12609375 36.65160156 5.5021875 37.24070313 4.859375 37.84765625 C3 39 3 39 1.15429688 38.82421875 C-1.69192661 37.73527377 -3.19890347 36.13969146 -5.328125 33.96484375 C-6.12734375 33.15595703 -6.9265625 32.34707031 -7.75 31.51367188 C-8.575 30.66353516 -9.4 29.81339844 -10.25 28.9375 C-11.09046875 28.08349609 -11.9309375 27.22949219 -12.796875 26.34960938 C-14.87147597 24.23964588 -16.93875832 22.12300292 -19 20 C-14.93161827 15.1088516 -10.65561922 10.52649247 -6.125 6.0625 C-5.23554687 5.17981445 -5.23554687 5.17981445 -4.328125 4.27929688 C-2.88773534 2.85052326 -1.4442033 1.42491868 0 0 Z " fill="#42C8FF" transform="translate(111,92)"/>
</svg>
